<svg width="25" height="26" viewBox="0 0 25 26" fill="none" xmlns="http://www.w3.org/2000/svg">
<g clip-path="url(#clip0_40_1253)">
<path d="M12.5 3.6875C10.428 3.6875 8.44086 4.5106 6.97573 5.97573C5.5106 7.44086 4.6875 9.428 4.6875 11.5V13.0625H6.25C6.6644 13.0625 7.06183 13.2271 7.35485 13.5201C7.64788 13.8132 7.8125 14.2106 7.8125 14.625V19.3125C7.8125 19.7269 7.64788 20.1243 7.35485 20.4174C7.06183 20.7104 6.6644 20.875 6.25 20.875H4.6875C4.2731 20.875 3.87567 20.7104 3.58265 20.4174C3.28962 20.1243 3.125 19.7269 3.125 19.3125V11.5C3.125 10.2689 3.36749 9.04977 3.83863 7.91234C4.30977 6.77492 5.00032 5.74142 5.87087 4.87087C6.74142 4.00032 7.77492 3.30977 8.91234 2.83863C10.0498 2.36749 11.2689 2.125 12.5 2.125C13.7311 2.125 14.9502 2.36749 16.0877 2.83863C17.2251 3.30977 18.2586 4.00032 19.1291 4.87087C19.9997 5.74142 20.6902 6.77492 21.1614 7.91234C21.6325 9.04977 21.875 10.2689 21.875 11.5V19.3125C21.875 19.7269 21.7104 20.1243 21.4174 20.4174C21.1243 20.7104 20.7269 20.875 20.3125 20.875H18.75C18.3356 20.875 17.9382 20.7104 17.6451 20.4174C17.3521 20.1243 17.1875 19.7269 17.1875 19.3125V14.625C17.1875 14.2106 17.3521 13.8132 17.6451 13.5201C17.9382 13.2271 18.3356 13.0625 18.75 13.0625H20.3125V11.5C20.3125 9.428 19.4894 7.44086 18.0243 5.97573C16.5591 4.5106 14.572 3.6875 12.5 3.6875Z" fill="white"/>
</g>
<defs>
<clipPath id="clip0_40_1253">
<rect width="25" height="25" fill="white" transform="translate(0 0.485352)"/>
</clipPath>
</defs>
</svg>
