<svg width="25" height="26" viewBox="0 0 25 26" fill="none" xmlns="http://www.w3.org/2000/svg">
<g clip-path="url(#clip0_40_1023)">
<path d="M1.5625 4.90421C2.94531 4.32608 4.92812 3.70264 6.85625 3.50889C8.93437 3.29952 10.6969 3.60733 11.7188 4.68389V19.912C10.2578 19.0839 8.40625 18.9698 6.69844 19.1417C4.85469 19.3292 2.99531 19.862 1.5625 20.4089V4.90421ZM13.2812 4.68389C14.3031 3.60733 16.0656 3.29952 18.1438 3.50889C20.0719 3.70264 22.0547 4.32608 23.4375 4.90421V20.4089C22.0031 19.862 20.1453 19.3276 18.3016 19.1433C16.5922 18.9698 14.7422 19.0823 13.2812 19.912V4.68389ZM12.5 3.27139C10.9609 1.94796 8.72969 1.75108 6.69844 1.95421C4.33281 2.19327 1.94531 3.00421 0.457813 3.68077C0.321327 3.74284 0.205586 3.84288 0.124408 3.96894C0.0432292 4.09501 4.15178e-05 4.24177 0 4.39171L0 21.5792C3.61906e-05 21.7099 0.0328705 21.8385 0.0954955 21.9533C0.15812 22.068 0.248534 22.1652 0.358454 22.2359C0.468375 22.3067 0.594288 22.3487 0.724661 22.3582C0.855034 22.3677 0.985699 22.3443 1.10469 22.2901C2.48281 21.6651 4.70312 20.9136 6.85469 20.6964C9.05625 20.4745 10.9016 20.8323 11.8906 22.0667C11.9638 22.158 12.0566 22.2316 12.1621 22.2822C12.2675 22.3328 12.383 22.3591 12.5 22.3591C12.617 22.3591 12.7325 22.3328 12.8379 22.2822C12.9434 22.2316 13.0362 22.158 13.1094 22.0667C14.0984 20.8323 15.9438 20.4745 18.1438 20.6964C20.2969 20.9136 22.5188 21.6651 23.8953 22.2901C24.0143 22.3443 24.145 22.3677 24.2753 22.3582C24.4057 22.3487 24.5316 22.3067 24.6415 22.2359C24.7515 22.1652 24.8419 22.068 24.9045 21.9533C24.9671 21.8385 25 21.7099 25 21.5792V4.39171C25 4.24177 24.9568 4.09501 24.8756 3.96894C24.7944 3.84288 24.6787 3.74284 24.5422 3.68077C23.0547 3.00421 20.6672 2.19327 18.3016 1.95421C16.2703 1.74952 14.0391 1.94796 12.5 3.27139Z" fill="white"/>
</g>
<defs>
<clipPath id="clip0_40_1023">
<rect width="25" height="25" fill="white" transform="translate(0 0.485352)"/>
</clipPath>
</defs>
</svg>
