<svg width="29" height="26" viewBox="0 0 29 26" fill="none" xmlns="http://www.w3.org/2000/svg">
<g clip-path="url(#clip0_40_1042)">
<path d="M4 1.78125C4 1.57405 4.08231 1.37534 4.22882 1.22882C4.37534 1.08231 4.57405 1 4.78125 1H7.125C7.29927 1.00005 7.46852 1.05836 7.60583 1.16566C7.74314 1.27297 7.84064 1.4231 7.88281 1.59219L8.51562 4.125H26.6562C26.7718 4.12507 26.8859 4.15077 26.9903 4.20024C27.0947 4.24971 27.1868 4.32172 27.2601 4.41109C27.3333 4.50046 27.3858 4.60496 27.4138 4.71706C27.4418 4.82916 27.4445 4.94608 27.4219 5.05938L25.8594 12.8719C25.8252 13.0422 25.7352 13.1963 25.6036 13.3098C25.472 13.4233 25.3064 13.4897 25.1328 13.4984L10.45 14.2359L10.8984 16.625H24.3125C24.5197 16.625 24.7184 16.7073 24.8649 16.8538C25.0114 17.0003 25.0938 17.199 25.0938 17.4062C25.0938 17.6135 25.0114 17.8122 24.8649 17.9587C24.7184 18.1052 24.5197 18.1875 24.3125 18.1875H10.25C10.0679 18.1873 9.89151 18.1235 9.75142 18.0071C9.61134 17.8907 9.51633 17.729 9.48281 17.55L7.14062 5.07344L6.51562 2.5625H4.78125C4.57405 2.5625 4.37534 2.48019 4.22882 2.33368C4.08231 2.18716 4 1.98845 4 1.78125ZM8.84688 5.6875L10.1594 12.6859L24.4469 11.9688L25.7031 5.6875H8.84688ZM11.8125 18.1875C10.9837 18.1875 10.1888 18.5167 9.60279 19.1028C9.01674 19.6888 8.6875 20.4837 8.6875 21.3125C8.6875 22.1413 9.01674 22.9362 9.60279 23.5222C10.1888 24.1083 10.9837 24.4375 11.8125 24.4375C12.6413 24.4375 13.4362 24.1083 14.0222 23.5222C14.6083 22.9362 14.9375 22.1413 14.9375 21.3125C14.9375 20.4837 14.6083 19.6888 14.0222 19.1028C13.4362 18.5167 12.6413 18.1875 11.8125 18.1875ZM22.75 18.1875C21.9212 18.1875 21.1263 18.5167 20.5403 19.1028C19.9542 19.6888 19.625 20.4837 19.625 21.3125C19.625 22.1413 19.9542 22.9362 20.5403 23.5222C21.1263 24.1083 21.9212 24.4375 22.75 24.4375C23.5788 24.4375 24.3737 24.1083 24.9597 23.5222C25.5458 22.9362 25.875 22.1413 25.875 21.3125C25.875 20.4837 25.5458 19.6888 24.9597 19.1028C24.3737 18.5167 23.5788 18.1875 22.75 18.1875ZM11.8125 19.75C12.2269 19.75 12.6243 19.9146 12.9174 20.2076C13.2104 20.5007 13.375 20.8981 13.375 21.3125C13.375 21.7269 13.2104 22.1243 12.9174 22.4174C12.6243 22.7104 12.2269 22.875 11.8125 22.875C11.3981 22.875 11.0007 22.7104 10.7076 22.4174C10.4146 22.1243 10.25 21.7269 10.25 21.3125C10.25 20.8981 10.4146 20.5007 10.7076 20.2076C11.0007 19.9146 11.3981 19.75 11.8125 19.75ZM22.75 19.75C23.1644 19.75 23.5618 19.9146 23.8549 20.2076C24.1479 20.5007 24.3125 20.8981 24.3125 21.3125C24.3125 21.7269 24.1479 22.1243 23.8549 22.4174C23.5618 22.7104 23.1644 22.875 22.75 22.875C22.3356 22.875 21.9382 22.7104 21.6451 22.4174C21.3521 22.1243 21.1875 21.7269 21.1875 21.3125C21.1875 20.8981 21.3521 20.5007 21.6451 20.2076C21.9382 19.9146 22.3356 19.75 22.75 19.75Z" fill="white"/>
</g>
<defs>
<clipPath id="clip0_40_1042">
<rect width="27.9762" height="25" fill="white" transform="translate(0.285706 0.485352)"/>
</clipPath>
</defs>
</svg>
