<svg width="350" height="508" viewBox="0 0 350 508" fill="none" xmlns="http://www.w3.org/2000/svg">
<g filter="url(#filter0_i_106_2)">
<rect width="350" height="508" fill="black"/>
</g>
<rect x="0.5" y="0.5" width="349" height="507" stroke="white"/>
<path d="M166.009 285.539V278.405C166.058 272.339 166.786 267.243 168.193 263.118C169.601 258.992 171.833 255.328 174.891 252.125C177.948 248.873 181.952 245.597 186.903 242.297C191.125 239.385 194.571 236.546 197.24 233.78C199.909 230.965 201.85 228.029 203.064 224.971C204.326 221.914 204.957 218.565 204.957 214.925C204.957 209.247 203.598 204.248 200.88 199.929C198.211 195.561 194.571 192.163 189.96 189.737C185.398 187.262 180.254 186.024 174.527 186.024C168.8 186.024 163.607 187.31 158.948 189.882C154.289 192.455 150.552 196.07 147.737 200.729C144.922 205.388 143.442 210.873 143.296 217.182H134.051C134.197 209.465 136.041 202.646 139.584 196.725C143.175 190.805 148.004 186.194 154.07 182.894C160.137 179.545 166.956 177.871 174.527 177.871C182.146 177.871 188.917 179.497 194.838 182.748C200.758 185.951 205.393 190.368 208.742 195.998C212.139 201.627 213.838 208.033 213.838 215.216C213.838 219.73 213.11 223.879 211.654 227.665C210.198 231.402 207.917 234.945 204.811 238.293C201.705 241.642 197.677 245.039 192.726 248.485C188.213 251.591 184.646 254.552 182.025 257.366C179.453 260.181 177.633 263.239 176.565 266.539C175.497 269.839 174.964 273.795 174.964 278.405V285.539H166.009ZM170.669 329.946C168.485 329.946 166.616 329.194 165.063 327.69C163.559 326.137 162.806 324.268 162.806 322.084C162.806 319.949 163.559 318.105 165.063 316.551C166.616 314.998 168.485 314.222 170.669 314.222C172.852 314.222 174.697 314.998 176.201 316.551C177.754 318.105 178.531 319.949 178.531 322.084C178.531 323.54 178.167 324.875 177.439 326.088C176.759 327.253 175.813 328.199 174.6 328.927C173.435 329.607 172.124 329.946 170.669 329.946Z" fill="white"/>
<defs>
<filter id="filter0_i_106_2" x="0" y="0" width="350" height="513" filterUnits="userSpaceOnUse" color-interpolation-filters="sRGB">
<feFlood flood-opacity="0" result="BackgroundImageFix"/>
<feBlend mode="normal" in="SourceGraphic" in2="BackgroundImageFix" result="shape"/>
<feColorMatrix in="SourceAlpha" type="matrix" values="0 0 0 0 0 0 0 0 0 0 0 0 0 0 0 0 0 0 127 0" result="hardAlpha"/>
<feOffset dy="5"/>
<feGaussianBlur stdDeviation="27.5"/>
<feComposite in2="hardAlpha" operator="arithmetic" k2="-1" k3="1"/>
<feColorMatrix type="matrix" values="0 0 0 0 1 0 0 0 0 1 0 0 0 0 1 0 0 0 1 0"/>
<feBlend mode="normal" in2="shape" result="effect1_innerShadow_106_2"/>
</filter>
</defs>
</svg>
